<svg xmlns="http://www.w3.org/2000/svg" width="1024" height="1024" viewBox="0 0 1024 1024">
  <defs>
    <linearGradient id="bg" x1="0" y1="0" x2="1" y2="1">
      <stop offset="0%" stop-color="#0d5a8a"/>
      <stop offset="100%" stop-color="#020e1a"/>
    </linearGradient>
    <radialGradient id="glow" cx="50%" cy="50%" r="50%">
      <stop offset="0%" stop-color="#1890d5" stop-opacity="0.4"/>
      <stop offset="100%" stop-color="#0d5a8a" stop-opacity="0"/>
    </radialGradient>
  </defs>

  <!-- Ocean blue gradient background -->
  <rect width="1024" height="1024" fill="url(#bg)"/>

  <!-- Soft glow behind the icon -->
  <ellipse cx="512" cy="490" rx="370" ry="290" fill="url(#glow)"/>

  <!-- Lungs icon (Tabler Icons, MIT) — 24x24 viewBox scaled ×32, centered at (128,128) -->
  <g transform="translate(128,128) scale(32)"
     fill="none" stroke="white" stroke-width="1.3"
     stroke-linecap="round" stroke-linejoin="round">
    <path d="M6.081 20c1.612 0 2.919-1.335 2.919-2.98v-9.763c0-.694-.552-1.257-1.232-1.257-.205 0-.405.052-.584.15l-.13.083c-1.46 1.059-2.432 2.647-3.404 5.824-.42 1.37-.636 2.962-.648 4.775-.012 1.675 1.261 3.054 2.877 3.161l.203.007"/>
    <path d="M17.92 20c-1.613 0-2.92-1.335-2.92-2.98v-9.763c0-.694.552-1.257 1.233-1.257.204 0 .405.052.584.15l.13.083c1.46 1.059 2.432 2.647 3.405 5.824.42 1.37.636 2.962.648 4.775.012 1.675-1.261 3.054-2.878 3.161l-.202.007"/>
    <path d="M9 12a3 3 0 0 0 3-3 3 3 0 0 0 3 3"/>
    <path d="M12 4v5"/>
  </g>

  <!-- Subtle water waves at the base -->
  <path d="M0 830 Q128 795 256 830 Q384 865 512 830 Q640 795 768 830 Q896 865 1024 830 L1024 1024 L0 1024 Z"
        fill="rgba(24,144,213,0.18)"/>
  <path d="M0 880 Q128 845 256 880 Q384 915 512 880 Q640 845 768 880 Q896 915 1024 880 L1024 1024 L0 1024 Z"
        fill="rgba(24,144,213,0.13)"/>
</svg>
